<svg width="228" height="84" viewBox="0 0 228 84" fill="none" xmlns="http://www.w3.org/2000/svg">
<path d="M6.67969 54.3203C6.8099 53.6953 7.13542 53.1875 7.65625 52.7969C8.20312 52.3802 8.8151 52.0026 9.49219 51.6641C10.1953 51.3255 10.9245 51.013 11.6797 50.7266C12.4349 50.4141 13.125 50.0885 13.75 49.75C14.401 49.4115 14.9349 49.0208 15.3516 48.5781C15.7682 48.1094 15.9766 47.5495 15.9766 46.8984C15.9766 46.0651 15.7552 45.375 15.3125 44.8281C14.8958 44.2812 14.3229 43.8125 13.5938 43.4219C12.8906 43.0312 12.0833 42.7057 11.1719 42.4453C10.2604 42.1849 9.32292 41.9245 8.35938 41.6641C7.42188 41.3776 6.4974 41.0781 5.58594 40.7656C4.67448 40.4271 3.85417 40.0104 3.125 39.5156C2.42188 39.0208 1.84896 38.4219 1.40625 37.7188C0.989583 37.0156 0.78125 36.1432 0.78125 35.1016C0.78125 34.2422 0.950521 33.4349 1.28906 32.6797C1.65365 31.8984 2.1224 31.1693 2.69531 30.4922C3.29427 29.7891 3.97135 29.151 4.72656 28.5781C5.50781 28.0052 6.3151 27.5234 7.14844 27.1328C8.00781 26.7422 8.86719 26.4427 9.72656 26.2344C10.5859 26 11.3802 25.8828 12.1094 25.8828H12.5391C12.7734 25.9609 13.0859 26.0911 13.4766 26.2734C13.8672 26.4557 14.2448 26.638 14.6094 26.8203C14.974 26.9766 15.2865 27.1328 15.5469 27.2891C15.8073 27.4193 15.9375 27.4974 15.9375 27.5234V28.4219C15.4427 28.474 14.8047 28.5781 14.0234 28.7344C13.2422 28.8646 12.4219 29.0469 11.5625 29.2812C10.7031 29.5156 9.83073 29.8151 8.94531 30.1797C8.0599 30.5182 7.26562 30.9219 6.5625 31.3906C5.85938 31.8594 5.28646 32.4062 4.84375 33.0312C4.40104 33.6302 4.17969 34.3203 4.17969 35.1016C4.17969 36.2214 4.57031 37.1068 5.35156 37.7578C6.13281 38.3828 7.10938 38.9036 8.28125 39.3203C9.45312 39.737 10.7292 40.1146 12.1094 40.4531C13.5156 40.7656 14.8047 41.1562 15.9766 41.625C17.1484 42.0677 18.125 42.6667 18.9062 43.4219C19.6875 44.151 20.0781 45.1406 20.0781 46.3906C20.0781 47.0677 19.8698 47.7839 19.4531 48.5391C19.0625 49.2682 18.5286 49.9974 17.8516 50.7266C17.2005 51.4297 16.4583 52.1068 15.625 52.7578C14.7917 53.4089 13.9323 53.9818 13.0469 54.4766C12.1875 54.9453 11.3411 55.3359 10.5078 55.6484C9.67448 55.9349 8.93229 56.0781 8.28125 56.0781C8.07292 56.0781 7.85156 56.0521 7.61719 56C7.38281 55.9479 7.17448 55.8698 6.99219 55.7656C6.83594 55.6354 6.70573 55.4531 6.60156 55.2188C6.52344 54.9844 6.54948 54.6849 6.67969 54.3203ZM23.3203 41.3516C23.3203 41.1953 23.3203 40.9479 23.3203 40.6094C23.3464 40.2448 23.3594 39.8672 23.3594 39.4766C23.3854 39.0859 23.3984 38.7083 23.3984 38.3438C23.4245 37.9792 23.4375 37.7188 23.4375 37.5625C23.724 37.1458 24.0885 36.8073 24.5312 36.5469C25 36.2865 25.4688 36.0781 25.9375 35.9219C26.0156 37.3281 26.237 38.8255 26.6016 40.4141C26.9661 42.0026 27.3568 43.6042 27.7734 45.2188C28.1901 46.8073 28.5547 48.3828 28.8672 49.9453C29.2057 51.5078 29.375 52.9661 29.375 54.3203C29.375 55.4922 28.776 56.0781 27.5781 56.0781C26.849 56.0781 26.237 55.7786 25.7422 55.1797C25.2474 54.5807 24.8438 53.8255 24.5312 52.9141C24.2448 51.9766 24.0104 50.9479 23.8281 49.8281C23.6458 48.6823 23.5156 47.5625 23.4375 46.4688C23.3854 45.375 23.3464 44.3724 23.3203 43.4609C23.3203 42.5495 23.3203 41.8464 23.3203 41.3516ZM23.8672 26.7031C24.362 26.9115 24.7786 27.25 25.1172 27.7188C25.4557 28.1875 25.599 28.6172 25.5469 29.0078C25.5208 29.3724 25.2344 29.6328 24.6875 29.7891C24.1406 29.9193 23.2292 29.763 21.9531 29.3203C21.9531 28.6172 22.0833 28.0052 22.3438 27.4844C22.6302 26.9635 23.138 26.7031 23.8672 26.7031ZM31.8359 33.8906C31.8359 33.1354 31.7839 32.4062 31.6797 31.7031C31.5755 30.974 31.5495 30.3359 31.6016 29.7891C31.6536 29.2161 31.849 28.7604 32.1875 28.4219C32.5521 28.0833 33.2031 27.9141 34.1406 27.9141C34.4271 28.513 34.7005 29.4245 34.9609 30.6484C35.2474 31.8724 35.5208 33.2786 35.7812 34.8672C36.0417 36.4557 36.2891 38.1875 36.5234 40.0625C36.7578 41.9115 36.9661 43.7734 37.1484 45.6484C37.3568 47.5234 37.526 49.3724 37.6562 51.1953C37.8125 52.9922 37.9297 54.6328 38.0078 56.1172C37.1484 56.6901 36.4583 56.7292 35.9375 56.2344C35.4167 55.7396 34.987 54.9062 34.6484 53.7344C34.3099 52.5365 34.0495 51.0911 33.8672 49.3984C33.6849 47.6797 33.5026 45.9089 33.3203 44.0859C33.1641 42.237 32.9688 40.4271 32.7344 38.6562C32.5 36.8594 32.2005 35.2708 31.8359 33.8906ZM39.8047 35.6484C39.987 35.0234 40.1953 34.737 40.4297 34.7891C40.6901 34.8411 41.0026 35.1406 41.3672 35.6875C41.7318 36.2344 42.1354 36.9635 42.5781 37.875C43.0469 38.7865 43.5417 39.776 44.0625 40.8438C44.5833 41.8854 45.1432 42.9531 45.7422 44.0469C46.3672 45.1406 47.0052 46.1432 47.6562 47.0547C48.3333 47.9661 49.0365 48.7214 49.7656 49.3203C50.5208 49.9193 51.2891 50.2708 52.0703 50.375L55.1953 34.2031C55.2474 33.7604 55.4427 33.513 55.7812 33.4609C56.1458 33.3828 56.4974 33.3438 56.8359 33.3438C58.0078 33.3438 58.5938 33.8906 58.5938 34.9844C58.5938 35.5573 58.5417 36.4688 58.4375 37.7188C58.3333 38.9688 58.1641 40.349 57.9297 41.8594C57.6953 43.3438 57.4089 44.8802 57.0703 46.4688C56.7318 48.0312 56.3281 49.4635 55.8594 50.7656C55.3906 52.0677 54.8438 53.1354 54.2188 53.9688C53.6198 54.8021 52.9557 55.2188 52.2266 55.2188C51.1589 55.2188 50.1042 54.8672 49.0625 54.1641C48.0208 53.4349 47.0312 52.4974 46.0938 51.3516C45.1823 50.1797 44.3359 48.8776 43.5547 47.4453C42.7995 46.013 42.1354 44.5807 41.5625 43.1484C41.0156 41.6901 40.5859 40.2969 40.2734 38.9688C39.9609 37.6406 39.8047 36.5339 39.8047 35.6484ZM60.9375 45.1406C60.9375 43.7344 61.1068 42.3281 61.4453 40.9219C61.7839 39.5156 62.3177 38.2526 63.0469 37.1328C63.8021 36.013 64.7656 35.1016 65.9375 34.3984C67.1354 33.6953 68.5807 33.3438 70.2734 33.3438C71.237 33.3438 72.0833 33.526 72.8125 33.8906C73.5417 34.2292 74.1536 34.6849 74.6484 35.2578C75.1432 35.8307 75.5078 36.5078 75.7422 37.2891C76.0026 38.0443 76.1328 38.8385 76.1328 39.6719C76.1328 41 75.8203 42.2891 75.1953 43.5391C74.5964 44.7891 73.776 45.8958 72.7344 46.8594C71.7188 47.7969 70.5469 48.513 69.2188 49.0078C67.8906 49.4766 66.5365 49.5807 65.1562 49.3203C65.1823 50.0755 65.4297 50.6875 65.8984 51.1562C66.3932 51.599 66.9792 51.9375 67.6562 52.1719C68.3333 52.4062 69.0365 52.5625 69.7656 52.6406C70.4948 52.6927 71.1458 52.7188 71.7188 52.7188C72.3177 52.7188 72.8776 52.6667 73.3984 52.5625C73.9193 52.4583 74.4401 52.3411 74.9609 52.2109C75.4818 52.0807 76.0026 51.9635 76.5234 51.8594C77.0703 51.7552 77.6432 51.7031 78.2422 51.7031C78.4766 51.7031 78.7109 51.7161 78.9453 51.7422C79.1797 51.7682 79.401 51.8333 79.6094 51.9375C79.8177 52.0156 79.987 52.1589 80.1172 52.3672C80.2474 52.5495 80.3125 52.7839 80.3125 53.0703C80.3125 53.5651 80.1302 53.9818 79.7656 54.3203C79.401 54.6328 78.9323 54.9062 78.3594 55.1406C77.8125 55.375 77.2005 55.5573 76.5234 55.6875C75.8464 55.7917 75.1823 55.8828 74.5312 55.9609C73.9062 56.013 73.3203 56.0391 72.7734 56.0391C72.2526 56.0651 71.862 56.0781 71.6016 56.0781C69.9349 56.0781 68.4375 55.8177 67.1094 55.2969C65.7812 54.75 64.6615 54.0078 63.75 53.0703C62.8385 52.1068 62.1354 50.9609 61.6406 49.6328C61.1719 48.2786 60.9375 46.7812 60.9375 45.1406ZM65.0781 42.6016C65.0781 43.513 65.1953 44.1771 65.4297 44.5938C65.6901 45.0104 66.3021 45.2188 67.2656 45.2188C67.9427 45.2188 68.6068 45.1016 69.2578 44.8672C69.9089 44.6068 70.4948 44.2552 71.0156 43.8125C71.5625 43.3698 71.9922 42.849 72.3047 42.25C72.6172 41.651 72.7734 41 72.7734 40.2969C72.7734 39.9062 72.7344 39.5026 72.6562 39.0859C72.6042 38.6693 72.474 38.2917 72.2656 37.9531C72.0573 37.5885 71.7839 37.3021 71.4453 37.0938C71.1328 36.8594 70.7161 36.7422 70.1953 36.7422C69.4141 36.7422 68.6979 36.9245 68.0469 37.2891C67.4219 37.6276 66.888 38.0833 66.4453 38.6562C66.0026 39.2031 65.6641 39.8281 65.4297 40.5312C65.1953 41.2083 65.0781 41.8984 65.0781 42.6016ZM82.7344 39.5938C82.7344 39.3594 82.7474 39.125 82.7734 38.8906C82.7995 38.6302 82.8516 38.4089 82.9297 38.2266C83.0078 38.0182 83.125 37.849 83.2812 37.7188C83.4635 37.5885 83.7109 37.5234 84.0234 37.5234C84.2839 37.5234 84.5703 37.7318 84.8828 38.1484C85.2214 38.5391 85.5599 39.0469 85.8984 39.6719C86.237 40.2708 86.5625 40.9349 86.875 41.6641C87.2135 42.3932 87.5 43.0703 87.7344 43.6953C87.9948 44.2943 88.2031 44.8151 88.3594 45.2578C88.5156 45.7005 88.6068 45.9349 88.6328 45.9609C88.9714 45.0495 89.349 44.0599 89.7656 42.9922C90.1823 41.9245 90.6901 40.9349 91.2891 40.0234C91.9141 39.0859 92.6432 38.3047 93.4766 37.6797C94.3359 37.0547 95.3776 36.7422 96.6016 36.7422C97.2266 36.7422 97.8125 36.8464 98.3594 37.0547C98.9323 37.237 99.4271 37.5234 99.8438 37.9141C100.286 38.2786 100.638 38.7214 100.898 39.2422C101.159 39.763 101.289 40.362 101.289 41.0391C101.289 41.612 101.055 42.0156 100.586 42.25C100.143 42.4844 99.6354 42.6016 99.0625 42.6016H98.6719L96.9922 40.9219C96.9401 40.9219 96.901 40.9089 96.875 40.8828C96.8229 40.8828 96.7708 40.8828 96.7188 40.8828C96.6927 40.8568 96.6536 40.8438 96.6016 40.8438C95.6901 40.8438 94.974 41.1042 94.4531 41.625C93.9583 42.1198 93.5807 42.7448 93.3203 43.5C93.0599 44.2292 92.8906 45.0104 92.8125 45.8438C92.7604 46.651 92.7344 47.3932 92.7344 48.0703C92.7344 48.5911 92.7865 49.125 92.8906 49.6719C92.9948 50.1927 93.112 50.7135 93.2422 51.2344C93.3724 51.7292 93.4896 52.25 93.5938 52.7969C93.6979 53.3177 93.75 53.8646 93.75 54.4375C93.75 55.5312 93.1641 56.0781 91.9922 56.0781C91.3411 56.0781 90.6641 55.7396 89.9609 55.0625C89.2578 54.3594 88.5547 53.474 87.8516 52.4062C87.1745 51.3385 86.5234 50.1667 85.8984 48.8906C85.2734 47.5885 84.7266 46.3255 84.2578 45.1016C83.7891 43.8776 83.4115 42.7708 83.125 41.7812C82.8646 40.7917 82.7344 40.0625 82.7344 39.5938ZM108.594 54.3203C108.724 53.6953 109.049 53.1875 109.57 52.7969C110.117 52.3802 110.729 52.0026 111.406 51.6641C112.109 51.3255 112.839 51.013 113.594 50.7266C114.349 50.4141 115.039 50.0885 115.664 49.75C116.315 49.4115 116.849 49.0208 117.266 48.5781C117.682 48.1094 117.891 47.5495 117.891 46.8984C117.891 46.0651 117.669 45.375 117.227 44.8281C116.81 44.2812 116.237 43.8125 115.508 43.4219C114.805 43.0312 113.997 42.7057 113.086 42.4453C112.174 42.1849 111.237 41.9245 110.273 41.6641C109.336 41.3776 108.411 41.0781 107.5 40.7656C106.589 40.4271 105.768 40.0104 105.039 39.5156C104.336 39.0208 103.763 38.4219 103.32 37.7188C102.904 37.0156 102.695 36.1432 102.695 35.1016C102.695 34.2422 102.865 33.4349 103.203 32.6797C103.568 31.8984 104.036 31.1693 104.609 30.4922C105.208 29.7891 105.885 29.151 106.641 28.5781C107.422 28.0052 108.229 27.5234 109.062 27.1328C109.922 26.7422 110.781 26.4427 111.641 26.2344C112.5 26 113.294 25.8828 114.023 25.8828H114.453C114.688 25.9609 115 26.0911 115.391 26.2734C115.781 26.4557 116.159 26.638 116.523 26.8203C116.888 26.9766 117.201 27.1328 117.461 27.2891C117.721 27.4193 117.852 27.4974 117.852 27.5234V28.4219C117.357 28.474 116.719 28.5781 115.938 28.7344C115.156 28.8646 114.336 29.0469 113.477 29.2812C112.617 29.5156 111.745 29.8151 110.859 30.1797C109.974 30.5182 109.18 30.9219 108.477 31.3906C107.773 31.8594 107.201 32.4062 106.758 33.0312C106.315 33.6302 106.094 34.3203 106.094 35.1016C106.094 36.2214 106.484 37.1068 107.266 37.7578C108.047 38.3828 109.023 38.9036 110.195 39.3203C111.367 39.737 112.643 40.1146 114.023 40.4531C115.43 40.7656 116.719 41.1562 117.891 41.625C119.062 42.0677 120.039 42.6667 120.82 43.4219C121.602 44.151 121.992 45.1406 121.992 46.3906C121.992 47.0677 121.784 47.7839 121.367 48.5391C120.977 49.2682 120.443 49.9974 119.766 50.7266C119.115 51.4297 118.372 52.1068 117.539 52.7578C116.706 53.4089 115.846 53.9818 114.961 54.4766C114.102 54.9453 113.255 55.3359 112.422 55.6484C111.589 55.9349 110.846 56.0781 110.195 56.0781C109.987 56.0781 109.766 56.0521 109.531 56C109.297 55.9479 109.089 55.8698 108.906 55.7656C108.75 55.6354 108.62 55.4531 108.516 55.2188C108.438 54.9844 108.464 54.6849 108.594 54.3203ZM122.812 44.2422C122.812 43.1484 123.047 42.0026 123.516 40.8047C124.01 39.6068 124.661 38.526 125.469 37.5625C126.276 36.5729 127.201 35.7526 128.242 35.1016C129.31 34.4505 130.43 34.125 131.602 34.125C132.201 34.125 132.799 34.2292 133.398 34.4375C133.997 34.6458 134.531 34.9453 135 35.3359C135.495 35.7266 135.885 36.1953 136.172 36.7422C136.484 37.2891 136.641 37.901 136.641 38.5781C136.172 38.5781 135.742 38.526 135.352 38.4219C134.987 38.3177 134.622 38.2005 134.258 38.0703C133.893 37.9141 133.529 37.7839 133.164 37.6797C132.826 37.5755 132.448 37.5234 132.031 37.5234C130.964 37.5234 130.091 37.7969 129.414 38.3438C128.763 38.8646 128.242 39.5286 127.852 40.3359C127.461 41.1432 127.188 42.0156 127.031 42.9531C126.901 43.8646 126.836 44.724 126.836 45.5312C126.836 45.6615 126.836 45.9089 126.836 46.2734C126.862 46.638 126.875 47.0286 126.875 47.4453C126.901 47.8359 126.914 48.2135 126.914 48.5781C126.94 48.9427 126.966 49.1901 126.992 49.3203C127.279 49.9453 127.552 50.4271 127.812 50.7656C128.099 51.1042 128.398 51.3646 128.711 51.5469C129.023 51.7031 129.362 51.8073 129.727 51.8594C130.091 51.8854 130.521 51.8984 131.016 51.8984C131.693 51.8984 132.279 51.7943 132.773 51.5859C133.294 51.3776 133.776 51.1302 134.219 50.8438C134.661 50.5573 135.078 50.2448 135.469 49.9062C135.859 49.5417 136.263 49.2161 136.68 48.9297C137.122 48.6172 137.591 48.3698 138.086 48.1875C138.607 47.9792 139.193 47.875 139.844 47.875C139.844 49.151 139.609 50.2839 139.141 51.2734C138.698 52.263 138.06 53.1094 137.227 53.8125C136.419 54.5156 135.456 55.0625 134.336 55.4531C133.242 55.8177 132.044 56 130.742 56C129.518 56 128.411 55.5833 127.422 54.75C126.458 53.9167 125.625 52.901 124.922 51.7031C124.245 50.4792 123.724 49.1901 123.359 47.8359C122.995 46.4818 122.812 45.2839 122.812 44.2422ZM142.031 39.5938C142.031 39.3594 142.044 39.125 142.07 38.8906C142.096 38.6302 142.148 38.4089 142.227 38.2266C142.305 38.0182 142.422 37.849 142.578 37.7188C142.76 37.5885 143.008 37.5234 143.32 37.5234C143.581 37.5234 143.867 37.7318 144.18 38.1484C144.518 38.5391 144.857 39.0469 145.195 39.6719C145.534 40.2708 145.859 40.9349 146.172 41.6641C146.51 42.3932 146.797 43.0703 147.031 43.6953C147.292 44.2943 147.5 44.8151 147.656 45.2578C147.812 45.7005 147.904 45.9349 147.93 45.9609C148.268 45.0495 148.646 44.0599 149.062 42.9922C149.479 41.9245 149.987 40.9349 150.586 40.0234C151.211 39.0859 151.94 38.3047 152.773 37.6797C153.633 37.0547 154.674 36.7422 155.898 36.7422C156.523 36.7422 157.109 36.8464 157.656 37.0547C158.229 37.237 158.724 37.5234 159.141 37.9141C159.583 38.2786 159.935 38.7214 160.195 39.2422C160.456 39.763 160.586 40.362 160.586 41.0391C160.586 41.612 160.352 42.0156 159.883 42.25C159.44 42.4844 158.932 42.6016 158.359 42.6016H157.969L156.289 40.9219C156.237 40.9219 156.198 40.9089 156.172 40.8828C156.12 40.8828 156.068 40.8828 156.016 40.8828C155.99 40.8568 155.951 40.8438 155.898 40.8438C154.987 40.8438 154.271 41.1042 153.75 41.625C153.255 42.1198 152.878 42.7448 152.617 43.5C152.357 44.2292 152.188 45.0104 152.109 45.8438C152.057 46.651 152.031 47.3932 152.031 48.0703C152.031 48.5911 152.083 49.125 152.188 49.6719C152.292 50.1927 152.409 50.7135 152.539 51.2344C152.669 51.7292 152.786 52.25 152.891 52.7969C152.995 53.3177 153.047 53.8646 153.047 54.4375C153.047 55.5312 152.461 56.0781 151.289 56.0781C150.638 56.0781 149.961 55.7396 149.258 55.0625C148.555 54.3594 147.852 53.474 147.148 52.4062C146.471 51.3385 145.82 50.1667 145.195 48.8906C144.57 47.5885 144.023 46.3255 143.555 45.1016C143.086 43.8776 142.708 42.7708 142.422 41.7812C142.161 40.7917 142.031 40.0625 142.031 39.5938ZM161.992 45.1406C161.992 43.7344 162.161 42.3281 162.5 40.9219C162.839 39.5156 163.372 38.2526 164.102 37.1328C164.857 36.013 165.82 35.1016 166.992 34.3984C168.19 33.6953 169.635 33.3438 171.328 33.3438C172.292 33.3438 173.138 33.526 173.867 33.8906C174.596 34.2292 175.208 34.6849 175.703 35.2578C176.198 35.8307 176.562 36.5078 176.797 37.2891C177.057 38.0443 177.188 38.8385 177.188 39.6719C177.188 41 176.875 42.2891 176.25 43.5391C175.651 44.7891 174.831 45.8958 173.789 46.8594C172.773 47.7969 171.602 48.513 170.273 49.0078C168.945 49.4766 167.591 49.5807 166.211 49.3203C166.237 50.0755 166.484 50.6875 166.953 51.1562C167.448 51.599 168.034 51.9375 168.711 52.1719C169.388 52.4062 170.091 52.5625 170.82 52.6406C171.549 52.6927 172.201 52.7188 172.773 52.7188C173.372 52.7188 173.932 52.6667 174.453 52.5625C174.974 52.4583 175.495 52.3411 176.016 52.2109C176.536 52.0807 177.057 51.9635 177.578 51.8594C178.125 51.7552 178.698 51.7031 179.297 51.7031C179.531 51.7031 179.766 51.7161 180 51.7422C180.234 51.7682 180.456 51.8333 180.664 51.9375C180.872 52.0156 181.042 52.1589 181.172 52.3672C181.302 52.5495 181.367 52.7839 181.367 53.0703C181.367 53.5651 181.185 53.9818 180.82 54.3203C180.456 54.6328 179.987 54.9062 179.414 55.1406C178.867 55.375 178.255 55.5573 177.578 55.6875C176.901 55.7917 176.237 55.8828 175.586 55.9609C174.961 56.013 174.375 56.0391 173.828 56.0391C173.307 56.0651 172.917 56.0781 172.656 56.0781C170.99 56.0781 169.492 55.8177 168.164 55.2969C166.836 54.75 165.716 54.0078 164.805 53.0703C163.893 52.1068 163.19 50.9609 162.695 49.6328C162.227 48.2786 161.992 46.7812 161.992 45.1406ZM166.133 42.6016C166.133 43.513 166.25 44.1771 166.484 44.5938C166.745 45.0104 167.357 45.2188 168.32 45.2188C168.997 45.2188 169.661 45.1016 170.312 44.8672C170.964 44.6068 171.549 44.2552 172.07 43.8125C172.617 43.3698 173.047 42.849 173.359 42.25C173.672 41.651 173.828 41 173.828 40.2969C173.828 39.9062 173.789 39.5026 173.711 39.0859C173.659 38.6693 173.529 38.2917 173.32 37.9531C173.112 37.5885 172.839 37.3021 172.5 37.0938C172.188 36.8594 171.771 36.7422 171.25 36.7422C170.469 36.7422 169.753 36.9245 169.102 37.2891C168.477 37.6276 167.943 38.0833 167.5 38.6562C167.057 39.2031 166.719 39.8281 166.484 40.5312C166.25 41.2083 166.133 41.8984 166.133 42.6016ZM183.789 45.1406C183.789 43.7344 183.958 42.3281 184.297 40.9219C184.635 39.5156 185.169 38.2526 185.898 37.1328C186.654 36.013 187.617 35.1016 188.789 34.3984C189.987 33.6953 191.432 33.3438 193.125 33.3438C194.089 33.3438 194.935 33.526 195.664 33.8906C196.393 34.2292 197.005 34.6849 197.5 35.2578C197.995 35.8307 198.359 36.5078 198.594 37.2891C198.854 38.0443 198.984 38.8385 198.984 39.6719C198.984 41 198.672 42.2891 198.047 43.5391C197.448 44.7891 196.628 45.8958 195.586 46.8594C194.57 47.7969 193.398 48.513 192.07 49.0078C190.742 49.4766 189.388 49.5807 188.008 49.3203C188.034 50.0755 188.281 50.6875 188.75 51.1562C189.245 51.599 189.831 51.9375 190.508 52.1719C191.185 52.4062 191.888 52.5625 192.617 52.6406C193.346 52.6927 193.997 52.7188 194.57 52.7188C195.169 52.7188 195.729 52.6667 196.25 52.5625C196.771 52.4583 197.292 52.3411 197.812 52.2109C198.333 52.0807 198.854 51.9635 199.375 51.8594C199.922 51.7552 200.495 51.7031 201.094 51.7031C201.328 51.7031 201.562 51.7161 201.797 51.7422C202.031 51.7682 202.253 51.8333 202.461 51.9375C202.669 52.0156 202.839 52.1589 202.969 52.3672C203.099 52.5495 203.164 52.7839 203.164 53.0703C203.164 53.5651 202.982 53.9818 202.617 54.3203C202.253 54.6328 201.784 54.9062 201.211 55.1406C200.664 55.375 200.052 55.5573 199.375 55.6875C198.698 55.7917 198.034 55.8828 197.383 55.9609C196.758 56.013 196.172 56.0391 195.625 56.0391C195.104 56.0651 194.714 56.0781 194.453 56.0781C192.786 56.0781 191.289 55.8177 189.961 55.2969C188.633 54.75 187.513 54.0078 186.602 53.0703C185.69 52.1068 184.987 50.9609 184.492 49.6328C184.023 48.2786 183.789 46.7812 183.789 45.1406ZM187.93 42.6016C187.93 43.513 188.047 44.1771 188.281 44.5938C188.542 45.0104 189.154 45.2188 190.117 45.2188C190.794 45.2188 191.458 45.1016 192.109 44.8672C192.76 44.6068 193.346 44.2552 193.867 43.8125C194.414 43.3698 194.844 42.849 195.156 42.25C195.469 41.651 195.625 41 195.625 40.2969C195.625 39.9062 195.586 39.5026 195.508 39.0859C195.456 38.6693 195.326 38.2917 195.117 37.9531C194.909 37.5885 194.635 37.3021 194.297 37.0938C193.984 36.8594 193.568 36.7422 193.047 36.7422C192.266 36.7422 191.549 36.9245 190.898 37.2891C190.273 37.6276 189.74 38.0833 189.297 38.6562C188.854 39.2031 188.516 39.8281 188.281 40.5312C188.047 41.2083 187.93 41.8984 187.93 42.6016ZM205.586 42.8359C205.586 42.1589 205.755 41.6771 206.094 41.3906C206.432 41.0781 206.979 40.9219 207.734 40.9219H208.125C208.203 41.3385 208.294 41.8203 208.398 42.3672C208.503 42.9141 208.659 43.474 208.867 44.0469C209.076 44.6198 209.323 45.1536 209.609 45.6484C209.896 46.1172 210.247 46.4948 210.664 46.7812C210.69 45.8698 210.911 44.9974 211.328 44.1641C211.771 43.3047 212.305 42.5495 212.93 41.8984C213.581 41.2214 214.284 40.6615 215.039 40.2188C215.82 39.75 216.589 39.4375 217.344 39.2812H218.203C219.453 39.2812 220.521 39.5677 221.406 40.1406C222.292 40.6875 223.021 41.4167 223.594 42.3281C224.193 43.2135 224.648 44.2292 224.961 45.375C225.273 46.5208 225.508 47.6927 225.664 48.8906C225.846 50.0625 225.951 51.2083 225.977 52.3281C226.029 53.4219 226.055 54.3594 226.055 55.1406H223.203C223.047 53.5781 222.852 52.0807 222.617 50.6484C222.539 50.0755 222.435 49.4766 222.305 48.8516C222.174 48.2005 222.031 47.6016 221.875 47.0547C221.719 46.4818 221.549 45.9609 221.367 45.4922C221.185 44.9974 220.977 44.5807 220.742 44.2422C220.638 44.138 220.495 43.9948 220.312 43.8125C220.156 43.6302 219.987 43.4479 219.805 43.2656C219.622 43.0833 219.453 42.9271 219.297 42.7969C219.141 42.6667 219.049 42.6016 219.023 42.6016C218.242 42.3932 217.565 42.5495 216.992 43.0703C216.419 43.5651 215.911 44.2422 215.469 45.1016C215.026 45.9609 214.661 46.9375 214.375 48.0312C214.115 49.125 213.893 50.1797 213.711 51.1953C213.529 52.1849 213.398 53.0573 213.32 53.8125C213.242 54.5417 213.19 54.9844 213.164 55.1406C212.513 55.6094 211.901 55.7526 211.328 55.5703C210.755 55.362 210.208 54.9453 209.688 54.3203C209.193 53.6953 208.737 52.9141 208.32 51.9766C207.93 51.0391 207.565 50.0495 207.227 49.0078C206.888 47.9401 206.576 46.8724 206.289 45.8047C206.029 44.737 205.794 43.7474 205.586 42.8359Z" fill="white"/>
<path d="M23.0393 32.202C22.8551 31.9588 22.6537 31.663 22.4351 31.3145C22.2175 30.957 21.9989 30.5672 21.7792 30.1451C21.5595 29.7231 21.3468 29.2789 21.1411 28.8127C20.9445 28.3476 20.7665 27.8802 20.607 27.4104C20.4566 26.9419 20.3373 26.4817 20.2492 26.03C20.1612 25.5783 20.1294 25.1566 20.1539 24.7647C20.1857 24.4748 20.234 24.2007 20.2989 23.9424C20.3739 23.6762 20.4766 23.4501 20.6069 23.2642C20.7373 23.0783 20.9084 22.9388 21.1203 22.8456C21.3423 22.7445 21.6115 22.7136 21.9281 22.7527C22.3352 22.8031 22.676 22.9142 22.9506 23.0859C23.2262 23.2485 23.4556 23.456 23.6388 23.7083C23.8311 23.9616 23.9913 24.2569 24.1195 24.5942C24.2566 24.9326 24.3868 25.2931 24.5099 25.6756C24.559 25.5623 24.6663 25.3782 24.8317 25.1231C24.9971 24.8681 25.1992 24.613 25.438 24.3579C25.6868 24.0948 25.9603 23.8577 26.2585 23.6467C26.5667 23.4277 26.888 23.2976 27.2226 23.2563C27.5672 23.2071 27.912 23.2819 28.2569 23.4807C28.6119 23.6716 28.9617 24.0363 29.3061 24.5748C29.5018 25.049 29.5021 25.5908 29.307 26.2003C29.113 26.8008 28.7456 27.4349 28.2049 28.1026C27.6653 28.7613 26.9578 29.4452 26.0826 30.1542C25.2084 30.8541 24.194 31.5367 23.0393 32.202Z" fill="#FF0000"/>
</svg>
